<?xml version="1.0" encoding="UTF-8"?>
<svg id="Layer_1" data-name="Layer 1" xmlns="http://www.w3.org/2000/svg" viewBox="0 0 757.78 315.06">
  <defs>
    <style>
      .cls-1 {
        fill: #e1d1fc;
        stroke: #fffcf3;
        stroke-linejoin: round;
        stroke-width: 10px;
      }
    </style>
  </defs>
  <path class="cls-1" d="m581.88,296.6c-5.37,8.08-16.56,13.41-27,13.41-10.78.73-19.88-7.13-25.32-12.94-5.42,7.82-14.45,12.94-24.68,12.94-10.79.73-19.89-7.13-25.32-12.94-5.41,7.82-14.45,12.94-24.68,12.94-10.79.73-19.88-7.13-25.32-12.94-5.42,7.82-14.45,12.94-24.68,12.94-10.79.73-19.89-7.13-25.32-12.94-5.41,7.82-14.45,12.94-24.68,12.94-10.79.73-19.89-7.13-25.32-12.94-5.41,7.82-14.46,12.94-24.68,12.94-10.79.73-19.89-7.13-25.32-12.94-5.41,7.82-14.45,12.94-24.68,12.94-10.79.73-19.88-7.13-25.32-12.94-5.42,7.82-14.45,12.94-24.68,12.94-10.81.73-19.91-7.15-25.35-12.99-5.66,8.13-18.22,13.29-28.85,12.86h0c-13.09.17-22.69-10.39-27.41-19.22-8.77,7.53-21.51,9.6-32.59,4.26h0c-12.03-5.03-16.72-18.52-17.47-28.54-11.03,3.43-23.54.29-31.58-9h0c-9.01-9.43-8.1-23.54-4.72-33.12-11.51-1.21-21.78-9.07-25.48-20.82h0c-4.55-12.25,1.99-24.85,8.81-32.28-10.04-5.68-16.32-16.93-15.08-29.15h0c.62-13.1,11.79-22.02,20.86-26.2-7.2-9.52-8.32-22.92-1.63-33.82,5.22-12.49,22.3-12.63,28.69-15.75-2.24-10.92,1.72-22.65,11.16-29.88,9.96-8.42,23.99-6.66,33.35-2.68,1.92-11.42,10.39-21.19,22.34-24.17,12.19-3.71,24.17,3.28,31.16,10.14,5.24-8.78,14.83-14.65,25.79-14.65s19.62,5.33,25,13.41c5.37-8.08,14.56-13.41,25-13.41s19.62,5.33,25,13.41c5.37-8.08,14.56-13.41,25-13.41s19.62,5.33,25,13.41c5.37-8.08,14.56-13.41,25-13.41s19.62,5.33,25,13.41c5.37-8.08,14.56-13.41,25-13.41s19.62,5.33,25,13.41c5.37-8.08,14.56-13.41,25-13.41s19.62,5.33,25,13.41c5.37-8.08,14.56-13.41,25-13.41s19.62,5.33,25,13.41c5.37-8.08,14.56-13.41,25-13.41s19.62,5.33,25,13.41c5.37-8.08,14.56-13.41,25-13.41s20.5,5.85,25.75,14.6c6.74-9.05,18.33-13.89,30.11-11.47,12.26,2.53,21.22,12.19,23.43,23.77,9.94-6.31,23.11-6.41,33.34.79,10.22,7.18,14.59,19.58,12.04,31.06,25.14-5.22,45.05,27.19,29.02,47.25,25.14,5.18,30.55,42.81,7.89,54.87h0c9.31,7.19,13.88,19.53,10.61,31.59h0c-3.27,12.08-13.47,20.43-25.15,21.92,13.45,21.87-10.27,51.59-34.57,43.34,1.14,11.71-4.71,23.49-15.74,29.38h0c-11.33,7.52-25.48,1.11-33.55-2.28-3.88,10.69-17.88,19.87-30,19.8-8.21-.05,2.02.26,0,0-1.99.42,2.12,0,0,0-10.44,0-22.82-4.95-28.19-13.03h.01Z"/>
</svg>