<?xml version="1.0" encoding="UTF-8"?>
<svg id="ClearButton" data-name="Layer 1" xmlns="http://www.w3.org/2000/svg" viewBox="0 0 100.41 81.16">
  <defs>
    <style>
      .cls-1 {
        fill: #fff7de;
      }

      .cls-1, .cls-2, .cls-3 {
        stroke-width: 0px;
      }

      .cls-2 {
        fill: #00a543;
      }

      .cls-3 {
        fill: #fffae1;
      }
    </style>
  </defs>
  <g>
    <path class="cls-2" d="m36.23,78.22c-10.19,0-19.58-9.1-23.25-17.66-2.6-6.06-2.56-11.86,0-16.43C5.82,38.5,2.87,23.24,2.94,18.19c0-.1,0-.21.02-.31,1.04-8.56,5.99-13.47,13.59-13.47,6.15,0,13.29,3.16,19.45,7.58.03-.6.24-1.19.62-1.67l.57-.73c.11-.14.23-.28.37-.4.55-.5,1.26-.76,1.97-.76.53,0,1.07.15,1.55.44,3.93,2.43,7.43,6.73,9.62,11.57,2.41-5.11,6.27-9.89,9.8-11.69.42-.22.88-.32,1.33-.32.88,0,1.74.4,2.31,1.13l.54.68c6.07-4.69,12.88-7.29,18.54-7.29,5.01,0,9.12,2,11.59,5.63,2.75,4.06,4.73,12.15-1.43,27.69-.79,2.43-2.27,4.5-4.35,6.12,2.22,3.42,2.62,8.32,1,13.89-2.99,10.27-12.14,20.9-22.27,20.9h0c-4.37,0-10.3-1.98-15.57-10.5-4.78,9.89-11.79,11.54-15.96,11.54Z"/>
    <path class="cls-1" d="m83.23,5.88c9.61,0,15.7,8.52,7.39,29.39-1.02,3.23-3.48,5.28-6.29,6.49,10.36,6.57-2.43,32.48-16.57,32.48-5.56,0-11.34-4.01-15.99-14.79-3.29,11.52-9.28,15.83-15.53,15.83-13.92,0-29.15-21.37-18.88-32.15-7.3-1.85-11.56-18.68-11.47-24.9.95-7.88,5.21-10.89,10.67-10.89,11.62,0,28.7,13.63,31.04,23.03.5-.9.63-2.76,1.8-3.31.7-1.45-6.02-13.33-10.46-14.94,0,0,.6-.77.6-.77,5,3.1,9,9.57,10.21,15.53.34-.12.65-.19.95-.19.3,0,.58.07.86.21,1.32-6.43,6.53-13.64,10.28-15.55l.6.77c-4.98,2.72-9.12,9.16-10.08,15.31.72.68,1.13,1.71,1.29,2.68,5.17-14.62,19.37-24.23,29.59-24.23m-43.69,5.48h0s0,0,0,0h0M83.23,0c-5.76,0-12.3,2.31-18.26,6.39-.94-.59-2.03-.9-3.14-.9-.9,0-1.82.21-2.67.64-2.92,1.49-5.97,4.61-8.45,8.34-2.25-3.36-5.05-6.22-8.08-8.1-.95-.59-2.03-.88-3.09-.88-1.42,0-2.83.51-3.94,1.52-.26.24-.49.49-.7.76C28.79,3.96,22.15,1.47,16.55,1.47c-9.12,0-15.29,6-16.51,16.06-.02.21-.04.41-.04.62-.06,4.46,2.3,19.22,9.39,26.67-1.98,4.96-1.71,10.84.88,16.9,4.04,9.42,14.51,19.44,25.95,19.44,4.23,0,10.96-1.4,16.22-9.05,5.26,6.39,10.93,8.01,15.3,8.01,11.96,0,21.86-11.86,25.1-23.03,1.55-5.34,1.45-10.21-.16-14.06,1.56-1.65,2.72-3.58,3.45-5.77,5.3-13.39,5.67-23.6,1.1-30.34-3.03-4.46-8.01-6.92-14.02-6.92h0Z"/>
  </g>
  <g>
    <path class="cls-3" d="m26.98,41.27c.47-.86,1.11-1.53,1.94-2,.83-.47,1.77-.71,2.84-.71,1.37,0,2.51.34,3.41,1.03.9.69,1.5,1.65,1.81,2.89h-3.02c-.16-.48-.43-.86-.81-1.13s-.85-.41-1.41-.41c-.8,0-1.43.29-1.9.87s-.7,1.4-.7,2.47.23,1.87.7,2.45,1.1.87,1.9.87c1.13,0,1.87-.51,2.22-1.52h3.02c-.31,1.2-.91,2.15-1.82,2.86-.91.71-2.04,1.06-3.4,1.06-1.07,0-2.01-.24-2.84-.71-.83-.47-1.47-1.14-1.94-2-.47-.86-.7-1.86-.7-3.01s.23-2.15.7-3.01Z"/>
    <path class="cls-3" d="m41.84,35.02v14.8h-2.8v-14.8h2.8Z"/>
    <path class="cls-3" d="m54.82,45.12h-8.1c.07.8.35,1.43.84,1.88s1.1.68,1.82.68c1.04,0,1.78-.45,2.22-1.34h3.02c-.32,1.07-.93,1.94-1.84,2.63-.91.69-2.02,1.03-3.34,1.03-1.07,0-2.02-.24-2.87-.71-.85-.47-1.51-1.14-1.98-2.01-.47-.87-.71-1.87-.71-3s.23-2.15.7-3.02c.47-.87,1.12-1.53,1.96-2s1.81-.7,2.9-.7,2,.23,2.83.68c.83.45,1.48,1.1,1.94,1.93s.69,1.79.69,2.87c0,.4-.03.76-.08,1.08Zm-2.82-1.88c-.01-.72-.27-1.3-.78-1.73s-1.13-.65-1.86-.65c-.69,0-1.28.21-1.75.63-.47.42-.76,1-.87,1.75h5.26Z"/>
    <path class="cls-3" d="m56.89,41.26c.45-.87,1.05-1.53,1.82-2,.77-.47,1.62-.7,2.57-.7.83,0,1.55.17,2.17.5s1.12.75,1.49,1.26v-1.58h2.82v11.08h-2.82v-1.62c-.36.52-.86.95-1.49,1.29-.63.34-1.36.51-2.19.51-.93,0-1.78-.24-2.55-.72-.77-.48-1.37-1.16-1.82-2.03-.45-.87-.67-1.88-.67-3.01s.22-2.11.67-2.98Zm7.65,1.27c-.27-.49-.63-.86-1.08-1.12-.45-.26-.94-.39-1.46-.39s-1,.13-1.44.38c-.44.25-.8.62-1.07,1.11s-.41,1.06-.41,1.73.14,1.25.41,1.75.63.88,1.08,1.15c.45.27.92.4,1.43.4s1.01-.13,1.46-.39c.45-.26.81-.63,1.08-1.12.27-.49.4-1.07.4-1.75s-.13-1.26-.4-1.75Z"/>
    <path class="cls-3" d="m74.71,39.08c.58-.33,1.24-.5,1.99-.5v2.94h-.74c-.88,0-1.54.21-1.99.62-.45.41-.67,1.13-.67,2.16v5.52h-2.8v-11.08h2.8v1.72c.36-.59.83-1.05,1.41-1.38Z"/>
  </g>
</svg>