<?xml version="1.0" encoding="UTF-8"?>
<svg id="Layer_1" data-name="Layer 1" xmlns="http://www.w3.org/2000/svg" viewBox="0 0 105.42 78.25">
  <defs>
    <style>
      .cls-1 {
        fill: #fff7de;
      }

      .cls-1, .cls-2, .cls-3 {
        stroke-width: 0px;
      }

      .cls-2 {
        fill: #f46800;
      }

      .cls-3 {
        fill: #fffae1;
      }
    </style>
  </defs>
  <g>
    <path class="cls-2" d="m88.03,75.09c-7.09,0-20.92-2.45-26.96-11.24-2.21.83-5.08.95-7.9,1.07l-.45.02c-.17,0-.34.01-.51.01-2.85,0-4.92-1.03-6.34-2-11.21,9.93-19.51,12.08-24.6,12.08-3.82,0-6.15-1.17-6.97-1.67l-.06-.03c-2.48-1.21-6.1-3.94-8.95-13.6-1.85-6.26-.18-16.45.53-20.8.03-.18.06-.35.08-.5-4.13-6.92-2.42-19.83-2.2-21.36C5.08,8.21,11.04,3.16,20.06,3.16c10.06,0,22.78,6.63,27.81,13.76.8-.52,2.94-1.57,7.12-1.57,2.07,0,3.98.37,5.56,1.04,2.79-5.88,9.81-13.09,23.74-13.09,3.27,0,6.84.39,10.6,1.17h0c1.3.28,8.35,2.38,7.26,15.59-.76,9.17-3.9,16.83-5.43,20.08,1.68,3.12,4.54,10.33,3.12,21.37-.06.45-.11.93-.15,1.42-.42,4.25-1.22,12.17-11.61,12.17h-.04Z"/>
    <path class="cls-1" d="m20.06,6.31c10.93,0,24.81,8.52,26.65,15.26.31-.53,2.42-1.73,2.82-1.97,0,0,1.45-1.09,5.45-1.09,3.33,0,5.69,1.15,6.6,2.49l.75-.09s2.68-14.45,21.95-14.45c2.92,0,6.23.33,9.97,1.1,0,0,5.69.8,4.75,12.23-.94,11.43-5.88,20.49-5.88,20.49,0,0,5.36,7.05,3.59,20.82-.57,4.47-.18,10.84-8.64,10.84-.01,0-.02,0-.03,0-8.49,0-21.98-3.41-25.69-12.29l-.77-.1c-.77,1.96-5.08,2.07-8.99,2.24-.13,0-.25,0-.38,0-3.61,0-5.47-2.31-6.54-2.94-11.43,10.73-19.55,13.02-24.4,13.02-3.22,0-4.99-1-5.33-1.21-.86-.52-4.55-1.37-7.63-11.83-2.1-7.11,1.1-21.14.86-21.21-4.44-5.65-2.35-20.12-2.35-20.12,1.28-8.18,6.73-11.19,13.23-11.19m0-6.31C9.48,0,2.2,6.18.59,16.53v.04s-.01.04-.01.04c-.37,2.56-1.82,14.56,2.04,22.36-1.19,7.41-2.12,15.68-.35,21.65,3.21,10.86,7.58,14.07,10.59,15.55,1.36.79,4.16,2.02,8.42,2.02,7.61,0,16-3.83,24.98-11.39,1.58.73,3.56,1.32,5.95,1.32.21,0,.43,0,.65-.01l.45-.02c2.1-.09,4.41-.19,6.57-.63,7.31,8.39,20.94,10.8,28.15,10.81,13.3,0,14.38-10.91,14.79-15.02.05-.46.09-.91.14-1.33,1.35-10.49-.88-17.82-2.76-21.85,1.73-3.99,4.38-11.26,5.08-19.73,1.29-15.58-7.74-18.48-9.77-18.93h0c-3.97-.82-7.76-1.24-11.24-1.24-13.65,0-21.41,6.35-25.25,12.48-1.27-.28-2.64-.43-4.05-.43-2.65,0-4.67.37-6.17.85C42.48,5.87,30.39,0,20.06,0v6.31s0-6.31,0-6.31h0Z"/>
  </g>
  <g>
    <path class="cls-3" d="m30.73,45.73c-.72-.33-1.29-.77-1.71-1.33-.42-.56-.65-1.18-.69-1.86h2.82c.05.43.26.78.63,1.06.37.28.82.42,1.37.42s.95-.11,1.25-.32c.3-.21.45-.49.45-.82,0-.36-.18-.63-.55-.81s-.95-.38-1.75-.59c-.83-.2-1.5-.41-2.03-.62-.53-.21-.98-.54-1.36-.98-.38-.44-.57-1.03-.57-1.78,0-.61.18-1.17.53-1.68.35-.51.86-.91,1.52-1.2.66-.29,1.44-.44,2.33-.44,1.32,0,2.37.33,3.16.99.79.66,1.22,1.55,1.3,2.67h-2.68c-.04-.44-.22-.79-.55-1.05-.33-.26-.76-.39-1.31-.39-.51,0-.9.09-1.17.28s-.41.45-.41.78c0,.37.19.66.56.85.37.19.95.39,1.74.59.8.2,1.46.41,1.98.62.52.21.97.54,1.35.99.38.45.58,1.04.59,1.77,0,.64-.18,1.21-.53,1.72-.35.51-.86.9-1.52,1.19-.66.29-1.43.43-2.31.43s-1.72-.16-2.44-.49Z"/>
    <path class="cls-3" d="m39.78,37.48c.45-.87,1.05-1.53,1.82-2s1.62-.7,2.57-.7c.83,0,1.55.17,2.17.5.62.33,1.12.75,1.49,1.26v-1.58h2.82v11.08h-2.82v-1.62c-.36.52-.86.95-1.49,1.29-.63.34-1.36.51-2.19.51-.93,0-1.78-.24-2.55-.72-.77-.48-1.37-1.16-1.82-2.03-.45-.87-.67-1.88-.67-3.01s.22-2.11.67-2.98Zm7.65,1.27c-.27-.49-.63-.86-1.08-1.12-.45-.26-.94-.39-1.46-.39s-1,.13-1.44.38c-.44.25-.8.62-1.07,1.11-.27.49-.41,1.06-.41,1.73s.14,1.25.41,1.75c.27.5.63.88,1.08,1.15s.92.4,1.43.4,1.01-.13,1.46-.39.81-.63,1.08-1.12c.27-.49.4-1.07.4-1.75s-.13-1.26-.4-1.75Z"/>
    <path class="cls-3" d="m58.01,43.46l2.8-8.5h2.98l-4.1,11.08h-3.4l-4.08-11.08h3l2.8,8.5Z"/>
    <path class="cls-3" d="m75.59,41.34h-8.1c.07.8.35,1.43.84,1.88s1.1.68,1.82.68c1.04,0,1.78-.45,2.22-1.34h3.02c-.32,1.07-.93,1.94-1.84,2.63-.91.69-2.02,1.03-3.34,1.03-1.07,0-2.02-.24-2.87-.71-.85-.47-1.51-1.14-1.98-2.01-.47-.87-.71-1.87-.71-3s.23-2.15.7-3.02c.47-.87,1.12-1.53,1.96-2,.84-.47,1.81-.7,2.9-.7s2,.23,2.83.68c.83.45,1.48,1.1,1.94,1.93.46.83.69,1.79.69,2.87,0,.4-.03.76-.08,1.08Zm-2.82-1.88c-.01-.72-.27-1.3-.78-1.73-.51-.43-1.13-.65-1.86-.65-.69,0-1.28.21-1.75.63s-.76,1-.87,1.75h5.26Z"/>
  </g>
</svg>