<?xml version="1.0" encoding="utf-8"?>
<!-- Generator: Adobe Illustrator 27.8.1, SVG Export Plug-In . SVG Version: 6.00 Build 0)  -->
<svg version="1.1" id="Layer_1" xmlns="http://www.w3.org/2000/svg" xmlns:xlink="http://www.w3.org/1999/xlink" x="0px" y="0px"
	 viewBox="0 0 760.3 398.6" style="enable-background:new 0 0 760.3 398.6;" xml:space="preserve">
<style type="text/css">
	.st0{fill:#E1D1FC;stroke:#FFFCF3;stroke-width:12.4931;stroke-linejoin:round;}
</style>
<path class="st0" d="M642.5,366.7c-4.8,13.5-22.1,25.1-37,25.1c-10.1-0.1,2.5,0.3,0,0c-2.5,0.5,2.6,0,0,0
	c-12.9,0-28.1-6.3-34.8-16.5h0v0c-6.6,10.2-20.4,17-33.3,17c-13.3,0.9-24.5-9-31.2-16.4c-6.7,9.9-17.8,16.4-30.4,16.4
	c-13.3,0.9-24.5-9-31.2-16.4c-6.7,9.9-17.8,16.4-30.4,16.4c-13.3,0.9-24.5-9-31.2-16.4c-6.7,9.9-17.8,16.4-30.4,16.4
	c-13.3,0.9-24.5-9-31.2-16.4h-4c-6.7,9.9-17.8,16.4-30.4,16.4c-13.3,0.9-24.5-9-31.2-16.4c-6.7,9.9-17.8,16.4-30.4,16.4
	c-13.3,0.9-24.6-9-31.3-16.4c-7,10.3-22.5,16.8-35.6,16.3l0,0c-16.1,0.2-28-13.1-33.8-24.3c-8.8,9.5-21.5,12.1-32.6,5.4l0,0
	c-12-6.4-16.7-23.4-17.5-36.1c-11,4.3-23.5,0.4-31.6-11.4l0,0c-9-11.9-8.1-29.8-4.7-41.9c-11.5-1.5-21.8-11.5-25.5-26.3l0,0
	c-4.6-15.5,2-31.4,8.8-40.9c-10-7.2-16.3-21.4-15.1-36.9l0,0c0.6-16.6,11.8-27.9,20.9-33.2c-7.2-12-8.3-29-1.6-42.8
	c5.2-15.8,22.3-16,28.7-19.9C52.1,69.9,56,55.1,65.5,45.9c10-10.7,24-8.4,33.3-3.4c1.9-14.5,10.4-26.8,22.3-30.6
	c12.2-4.7,24.2,4.2,31.2,12.8h6.5c6.5-11.1,18.3-18.5,31.8-18.5c13.5,0,24.2,6.7,30.8,17c6.6-10.2,18-17,30.8-17s24.2,6.7,30.8,17
	c6.6-10.2,18-17,30.8-17s24.2,6.7,30.8,17c6.6-10.2,18-17,30.8-17s24.2,6.7,30.8,17c6.6-10.2,18-17,30.8-17c12.9,0,24.2,6.7,30.8,17
	c6.6-10.2,18-17,30.8-17s24.2,6.7,30.8,17c6.6-10.2,18-17,30.8-17c12.9,0,25.3,7.4,31.8,18.5c8.3-11.5,22.6-17.6,37.1-14.5
	c15.1,3.2,26.2,15.4,28.9,30.1h-1c9.9-8,23.1-8.1,33.3,1c10.2,9.1,14.6,24.8,12,39.3c25.1-6.6,45,34.4,29,59.8
	c25.1,6.6,30.5,54.2,7.9,69.4l0,0c9.3,9.1,13.9,24.7,10.6,40l0,0c-3.3,15.3-13.5,25.9-25.2,27.7c13.5,27.7-10.3,65.3-34.6,54.8
	c1.1,14.8-4.7,29.7-15.7,37.2l0,0c-11.3,9.5-25.5,1.4-33.5-2.9H642.5z"/>
</svg>
