<?xml version="1.0" encoding="UTF-8"?>
<svg id="Layer_1" data-name="Layer 1" xmlns="http://www.w3.org/2000/svg" viewBox="0 0 78.13 72.32">
  <defs>
    <style>
      .cls-1 {
        fill: #27159d;
      }

      .cls-1, .cls-2 {
        stroke-width: 0px;
      }

      .cls-2 {
        fill: #e6fff4;
      }
    </style>
  </defs>
  <path class="cls-1" d="m41.58,72.32c63.07-26.01,32.93-104.87-3.88-57.44C3.93-18.32-28.47,47.91,41.58,72.32Z"/>
  <g>
    <path class="cls-2" d="m23.03,31.34c-.33-.31-.49-.7-.49-1.17s.16-.86.49-1.17.74-.47,1.23-.47.9.16,1.23.47.49.7.49,1.17-.16.86-.49,1.17-.74.47-1.23.47-.9-.16-1.23-.47Zm2.61,1.79v11.08h-2.8v-11.08h2.8Z"/>
    <path class="cls-2" d="m37.74,34.22c.81.83,1.22,2,1.22,3.49v6.5h-2.8v-6.12c0-.88-.22-1.56-.66-2.03-.44-.47-1.04-.71-1.8-.71s-1.38.24-1.83.71c-.45.47-.67,1.15-.67,2.03v6.12h-2.8v-11.08h2.8v1.38c.37-.48.85-.86,1.43-1.13s1.22-.41,1.91-.41c1.32,0,2.39.42,3.2,1.25Z"/>
    <path class="cls-2" d="m46.7,35.43h-1.94v8.78h-2.84v-8.78h-1.26v-2.3h1.26v-.56c0-1.36.39-2.36,1.16-3,.77-.64,1.94-.94,3.5-.9v2.36c-.68-.01-1.15.1-1.42.34-.27.24-.4.67-.4,1.3v.46h1.94v2.3Z"/>
    <path class="cls-2" d="m50.56,43.68c-.85-.47-1.52-1.14-2.01-2.01-.49-.87-.73-1.87-.73-3s.25-2.13.75-3c.5-.87,1.18-1.54,2.05-2.01.87-.47,1.83-.71,2.9-.71s2.03.24,2.9.71c.87.47,1.55,1.14,2.05,2.01.5.87.75,1.87.75,3s-.26,2.13-.77,3c-.51.87-1.21,1.54-2.08,2.01-.87.47-1.85.71-2.93.71s-2.03-.24-2.88-.71Zm4.31-2.1c.45-.25.8-.62,1.07-1.11s.4-1.09.4-1.8c0-1.05-.28-1.86-.83-2.43-.55-.57-1.23-.85-2.03-.85s-1.47.28-2.01.85c-.54.57-.81,1.38-.81,2.43s.26,1.86.79,2.43c.53.57,1.19.85,1.99.85.51,0,.98-.12,1.43-.37Z"/>
  </g>
</svg>