<?xml version="1.0" encoding="UTF-8"?>
<svg id="Layer_1" data-name="Layer 1" xmlns="http://www.w3.org/2000/svg" viewBox="0 0 101.36 83.04">
  <defs>
    <style>
      .cls-1 {
        fill: #ff29ae;
      }

      .cls-1, .cls-2, .cls-3 {
        stroke-width: 0px;
      }

      .cls-2 {
        fill: #fff7de;
      }

      .cls-3 {
        fill: #fffae1;
      }
    </style>
  </defs>
  <g>
    <path class="cls-1" d="m51.39,80.04c-6.45,0-12-2.77-15.82-7.86-2.33,1.37-5.86,2.9-9.96,2.9-4.31,0-8.25-1.66-11.73-4.92-.85-.71-5.95-5.24-6.6-11.65-.32-3.19.48-6.26,2.38-9.14-5.68-4.11-7.91-10.72-5.98-18.06,2.05-7.8,9.03-15.86,17.17-15.86.66,0,1.32.06,1.96.17.53-2.17,1.84-4.4,3.83-6.46,3.72-3.86,8.8-6.16,13.58-6.16,3.15,0,8.73,1.07,12.81,7.74,3.85-3.54,10.56-7.49,16.91-7.49,4.58,0,12.1,2.11,13.03,15.68.75-.15,1.51-.23,2.28-.23,4.75,0,9.14,2.96,11.44,7.73,3.17,6.57,1.82,14.74-3.6,22.03,1.75,5.79,2.18,15.42-5.98,19.59-1.82,1.27-5.01,1.43-6.46,1.43-2.18,0-5.91-.38-9.11-2.56-2.18,4.99-6.76,12.29-15.05,12.54-.88.22-2.72.59-5.08.59Z"/>
    <path class="cls-2" d="m40.21,6c4.25,0,8.5,2.25,11.36,8.4.2.42.61.65,1.02.65.3,0,.61-.13.83-.4,2.76-3.42,10.2-8.41,16.51-8.41,5.43,0,10.03,3.68,10.12,15.21,0,.63.53,1.13,1.11,1.13.14,0,.28-.03.42-.09,1.22-.55,2.45-.8,3.65-.8,8.43,0,15.24,12.62,4.87,25.7-.24.3-.31.7-.18,1.06.9,2.55,3.72,13.11-4.44,17.03-.31.42-2.33.98-4.86.98-2.96,0-6.62-.77-9.06-3.47-.24-.26-.55-.38-.85-.38-.44,0-.86.25-1.02.73-1.42,4.14-5.41,13-13.51,13.11-.08,0-.16.01-.24.03-.45.12-2.2.55-4.55.55-4.15,0-10.19-1.34-14.38-8.06-.2-.33-.55-.5-.91-.5-.22,0-.45.07-.64.2-1.68,1.18-5.41,3.4-9.85,3.4-3.05,0-6.44-1.04-9.74-4.17,0,0-10.74-8.6-2.62-18.35.43-.52.29-1.31-.29-1.64-14.64-8.25-3.3-29.47,7.89-29.47,1.07,0,2.14.19,3.19.62.14.06.28.08.42.08.6,0,1.11-.51,1.09-1.18-.19-5.03,7.23-11.97,14.68-11.97m0-6c-5.58,0-11.47,2.65-15.74,7.08-1.64,1.7-2.89,3.52-3.73,5.37-9.91.06-17.68,9.35-19.98,18.1-1.98,7.55-.05,14.66,5.06,19.53-1.31,2.79-1.84,5.75-1.54,8.74.75,7.4,6.27,12.47,7.6,13.6,3.98,3.71,8.72,5.67,13.71,5.67,3.56,0,6.73-.98,9.21-2.13,4.28,4.6,10.02,7.08,16.58,7.08,2.43,0,4.39-.35,5.5-.61,6.54-.32,12.16-4.38,15.99-11.41,2.32.95,4.94,1.45,7.76,1.45,2.54,0,5.71-.36,7.99-1.84,8.18-4.28,9.78-13.47,7.74-21.61,5.36-7.9,6.51-16.68,3.02-23.9-2.75-5.68-7.99-9.26-13.75-9.42-.62-4.05-1.91-7.3-3.9-9.86-2.85-3.66-6.93-5.6-11.79-5.6-5.92,0-11.96,2.9-16.33,6.14C49.05.95,43.52,0,40.21,0h0Z"/>
  </g>
  <g>
    <path class="cls-3" d="m31.14,32.93v14.8h-2.8v-14.8h2.8Z"/>
    <path class="cls-3" d="m35.94,47.2c-.85-.47-1.52-1.14-2.01-2.01-.49-.87-.73-1.87-.73-3s.25-2.13.75-3c.5-.87,1.18-1.54,2.05-2.01.87-.47,1.83-.71,2.9-.71s2.03.24,2.9.71c.87.47,1.55,1.14,2.05,2.01.5.87.75,1.87.75,3s-.26,2.13-.77,3c-.51.87-1.21,1.54-2.08,2.01-.87.47-1.85.71-2.93.71s-2.03-.24-2.88-.71Zm4.31-2.1c.45-.25.8-.62,1.07-1.11.27-.49.4-1.09.4-1.8,0-1.05-.28-1.86-.83-2.43-.55-.57-1.23-.85-2.03-.85s-1.47.28-2.01.85-.81,1.38-.81,2.43.26,1.86.79,2.43c.53.57,1.19.85,1.99.85.51,0,.98-.12,1.43-.37Z"/>
    <path class="cls-3" d="m46.61,39.17c.45-.87,1.05-1.53,1.82-2s1.62-.7,2.57-.7c.83,0,1.55.17,2.17.5s1.12.75,1.49,1.26v-1.58h2.82v11.08h-2.82v-1.62c-.36.52-.86.95-1.49,1.29-.63.34-1.36.51-2.19.51-.93,0-1.78-.24-2.55-.72-.77-.48-1.37-1.16-1.82-2.03-.45-.87-.67-1.88-.67-3.01s.22-2.11.67-2.98Zm7.65,1.27c-.27-.49-.63-.86-1.08-1.12-.45-.26-.94-.39-1.46-.39s-1,.13-1.44.38c-.44.25-.8.62-1.07,1.11s-.41,1.06-.41,1.73.14,1.25.41,1.75.63.88,1.08,1.15c.45.27.92.4,1.43.4s1.01-.13,1.46-.39.81-.63,1.08-1.12c.27-.49.4-1.07.4-1.75s-.13-1.26-.4-1.75Z"/>
    <path class="cls-3" d="m60.17,39.17c.45-.87,1.06-1.53,1.83-2,.77-.47,1.63-.7,2.58-.7.72,0,1.41.16,2.06.47.65.31,1.17.73,1.56,1.25v-5.26h2.84v14.8h-2.84v-1.64c-.35.55-.83.99-1.46,1.32-.63.33-1.35.5-2.18.5-.93,0-1.79-.24-2.56-.72-.77-.48-1.38-1.16-1.83-2.03-.45-.87-.67-1.88-.67-3.01s.22-2.11.67-2.98Zm7.65,1.27c-.27-.49-.63-.86-1.08-1.12-.45-.26-.94-.39-1.46-.39s-1,.13-1.44.38c-.44.25-.8.62-1.07,1.11s-.41,1.06-.41,1.73.14,1.25.41,1.75.63.88,1.08,1.15c.45.27.92.4,1.43.4s1.01-.13,1.46-.39.81-.63,1.08-1.12c.27-.49.4-1.07.4-1.75s-.13-1.26-.4-1.75Z"/>
  </g>
</svg>