<?xml version="1.0" encoding="UTF-8"?>
<svg id="Layer_1" data-name="Layer 1" xmlns="http://www.w3.org/2000/svg" viewBox="0 0 84.76 79.7">
  <defs>
    <style>
      .cls-1 {
        fill: #fff7de;
      }

      .cls-1, .cls-2, .cls-3 {
        stroke-width: 0px;
      }

      .cls-2 {
        fill: #fffae1;
      }

      .cls-3 {
        fill: #1f70ff;
      }
    </style>
  </defs>
  <g>
    <path class="cls-3" d="m42.15,76.76c-1.18,0-2.38-.06-3.55-.17-12.56-.62-23.93-7.32-30.44-17.93-5.92-9.66-6.84-20.97-2.55-31.15L3.09,10.95c-.26-1.47.15-2.98,1.13-4.16,1.02-1.23,2.57-1.97,4.13-1.97.81,0,1.58.19,2.3.55l9.71,4.57c6.58-4.31,14.64-6.67,22.9-6.67,6.77,0,13.27,1.58,18.9,4.57.46-.21.99-.45,1.5-.68,8.58-3.9,9.64-4.23,10.68-4.23h1.96l.25.54c.65.32,1.24.77,1.73,1.33.95,1.1,1.4,2.54,1.25,3.95l-1.16,13.69c-.05.64-.1,1.2-.15,1.68,5.27,10.36,4.72,22.26-1.55,32.78-7.3,12.25-20.53,19.86-34.52,19.86Z"/>
    <path class="cls-1" d="m74.34,5.88s.08,0,.08.03c1.27.06,2.31,1.27,2.18,2.54,0,0-1.38,16.29-1.39,16.29,12.16,22.48-8.02,49.08-33.07,49.08-1.1,0-2.22-.05-3.34-.16C15.36,72.55-.82,48.92,8.64,27.92c0,0-2.65-17.45-2.65-17.45-.27-1.45,1.01-2.71,2.36-2.71.32,0,.65.07.96.23l11.33,5.33c6.47-4.69,14.56-7.11,22.62-7.11,6.56,0,13.11,1.61,18.74,4.91.45-.1,11.27-5.24,12.34-5.24m0-5.88c-1.68,0-2.81.36-11.9,4.49-.07.03-.14.06-.21.09C56.49,1.79,50,.33,43.26.33c-8.25,0-16.32,2.21-23.1,6.27l-8.29-3.9c-1.09-.54-2.31-.82-3.52-.82-2.43,0-4.82,1.13-6.4,3.03C.4,6.78-.23,9.21.21,11.56h0c.02.21.05.4.08.54l.3,1.98.91,6,1.08,7.08c-4.29,10.86-3.2,22.8,3.08,33.04,7,11.42,19.23,18.64,32.74,19.33,1.25.11,2.51.17,3.76.17,15.02,0,29.21-8.16,37.04-21.3,6.64-11.15,7.35-23.74,2.03-34.84.03-.28.05-.57.08-.87l.48-5.6.69-8.11c.21-2.18-.5-4.4-1.96-6.09-1.28-1.49-3.03-2.47-4.92-2.77-.4-.08-.82-.13-1.24-.13h0Z"/>
  </g>
  <g>
    <path class="cls-2" d="m27.78,37.3v11.08h-2.82v-1.4c-.36.48-.83.86-1.41,1.13-.58.27-1.21.41-1.89.41-.87,0-1.63-.18-2.3-.55-.67-.37-1.19-.91-1.57-1.62-.38-.71-.57-1.56-.57-2.55v-6.5h2.8v6.1c0,.88.22,1.56.66,2.03.44.47,1.04.71,1.8.71s1.38-.24,1.82-.71c.44-.47.66-1.15.66-2.03v-6.1h2.82Z"/>
    <path class="cls-2" d="m39.88,38.39c.81.83,1.22,2,1.22,3.49v6.5h-2.8v-6.12c0-.88-.22-1.56-.66-2.03-.44-.47-1.04-.71-1.8-.71s-1.38.24-1.83.71c-.45.47-.67,1.15-.67,2.03v6.12h-2.8v-11.08h2.8v1.38c.37-.48.85-.86,1.43-1.13.58-.27,1.22-.41,1.91-.41,1.32,0,2.39.42,3.2,1.25Z"/>
    <path class="cls-2" d="m43.71,39.82c.45-.87,1.06-1.53,1.83-2s1.63-.7,2.58-.7c.72,0,1.41.16,2.06.47.65.31,1.17.73,1.56,1.25v-5.26h2.84v14.8h-2.84v-1.64c-.35.55-.83.99-1.46,1.32-.63.33-1.35.5-2.18.5-.93,0-1.79-.24-2.56-.72-.77-.48-1.38-1.16-1.83-2.03-.45-.87-.67-1.88-.67-3.01s.22-2.11.67-2.98Zm7.65,1.27c-.27-.49-.63-.86-1.08-1.12-.45-.26-.94-.39-1.46-.39s-1,.13-1.44.38c-.44.25-.8.62-1.07,1.11s-.41,1.06-.41,1.73.14,1.25.41,1.75.63.88,1.08,1.15c.45.27.92.4,1.43.4s1.01-.13,1.46-.39c.45-.26.81-.63,1.08-1.12.27-.49.4-1.07.4-1.75s-.13-1.26-.4-1.75Z"/>
    <path class="cls-2" d="m59.36,47.85c-.85-.47-1.52-1.14-2.01-2.01-.49-.87-.73-1.87-.73-3s.25-2.13.75-3c.5-.87,1.18-1.54,2.05-2.01.87-.47,1.83-.71,2.9-.71s2.03.24,2.9.71c.87.47,1.55,1.14,2.05,2.01.5.87.75,1.87.75,3s-.26,2.13-.77,3c-.51.87-1.21,1.54-2.08,2.01-.87.47-1.85.71-2.93.71s-2.03-.24-2.88-.71Zm4.31-2.1c.45-.25.8-.62,1.07-1.11.27-.49.4-1.09.4-1.8,0-1.05-.28-1.86-.83-2.43-.55-.57-1.23-.85-2.03-.85s-1.47.28-2.01.85-.81,1.38-.81,2.43.26,1.86.79,2.43c.53.57,1.19.85,1.99.85.51,0,.98-.12,1.43-.37Z"/>
  </g>
</svg>